<svg xmlns="http://www.w3.org/2000/svg" width="1000" height="640" viewBox="0 0 1000 640" font-family="Helvetica,Arial,sans-serif">
<rect width="1000" height="640" fill="white"/>
<text x="70" y="24" font-size="17" font-weight="bold">Risk vs return — best trend-filter variant per ETF (2005–2026)</text>
<line x1="70.0" y1="582.0" x2="790.0" y2="40.0" stroke="#cdd6df" stroke-dasharray="5 4"/><text x="786.0" y="35.0" font-size="11" fill="#9aa6b2" text-anchor="end">Calmar 0.5</text><line x1="70.0" y1="582.0" x2="970.0" y2="175.5" stroke="#cdd6df" stroke-dasharray="5 4"/><text x="966.0" y="170.5" font-size="11" fill="#9aa6b2" text-anchor="end">Calmar 0.3</text><line x1="70" y1="582.0" x2="970" y2="582.0" stroke="#eef1f4"/><text x="62" y="586.0" font-size="11" text-anchor="end" fill="#555">0%</text><line x1="70" y1="446.5" x2="970" y2="446.5" stroke="#eef1f4"/><text x="62" y="450.5" font-size="11" text-anchor="end" fill="#555">5%</text><line x1="70" y1="311.0" x2="970" y2="311.0" stroke="#eef1f4"/><text x="62" y="315.0" font-size="11" text-anchor="end" fill="#555">10%</text><line x1="70" y1="175.5" x2="970" y2="175.5" stroke="#eef1f4"/><text x="62" y="179.5" font-size="11" text-anchor="end" fill="#555">15%</text><line x1="70" y1="40.0" x2="970" y2="40.0" stroke="#eef1f4"/><text x="62" y="44.0" font-size="11" text-anchor="end" fill="#555">20%</text><line x1="70.0" y1="40" x2="70.0" y2="582" stroke="#eef1f4"/><text x="70.0" y="606" font-size="11" text-anchor="middle" fill="#555">0%</text><line x1="250.0" y1="40" x2="250.0" y2="582" stroke="#eef1f4"/><text x="250.0" y="606" font-size="11" text-anchor="middle" fill="#555">10%</text><line x1="430.0" y1="40" x2="430.0" y2="582" stroke="#eef1f4"/><text x="430.0" y="606" font-size="11" text-anchor="middle" fill="#555">20%</text><line x1="610.0" y1="40" x2="610.0" y2="582" stroke="#eef1f4"/><text x="610.0" y="606" font-size="11" text-anchor="middle" fill="#555">30%</text><line x1="790.0" y1="40" x2="790.0" y2="582" stroke="#eef1f4"/><text x="790.0" y="606" font-size="11" text-anchor="middle" fill="#555">40%</text><line x1="970.0" y1="40" x2="970.0" y2="582" stroke="#eef1f4"/><text x="970.0" y="606" font-size="11" text-anchor="middle" fill="#555">50%</text><text x="520.0" y="628" font-size="12.5" text-anchor="middle" fill="#333">maximum drawdown (risk →)</text><text x="18" y="311.0" font-size="12.5" fill="#333" transform="rotate(-90 18 311.0)" text-anchor="middle">CAGR (return →)</text><circle cx="584.1" cy="194.6" r="8" fill="#0a7f3f" fill-opacity="0.85"/><text x="595.1" y="198.6" font-size="13" font-weight="700" fill="#222">QQQ (Std)</text><circle cx="647.7" cy="224.3" r="6" fill="#1f6feb" fill-opacity="0.85"/><text x="658.7" y="228.3" font-size="12" font-weight="400" fill="#222">VGT (Std)</text><circle cx="686.5" cy="125.9" r="8" fill="#0a7f3f" fill-opacity="0.85"/><text x="697.5" y="129.9" font-size="13" font-weight="700" fill="#222">SOXX (Con)</text><circle cx="683.9" cy="334.3" r="6" fill="#1f6feb" fill-opacity="0.85"/><text x="694.9" y="338.3" font-size="12" font-weight="400" fill="#222">SPY (Std)</text><circle cx="754.9" cy="427.1" r="6" fill="#9aa6b2" fill-opacity="0.85"/><text x="765.9" y="431.1" font-size="12" font-weight="400" fill="#222">DIA (Std)</text><circle cx="879.5" cy="483.8" r="6" fill="#9aa6b2" fill-opacity="0.85"/><text x="890.5" y="487.8" font-size="12" font-weight="400" fill="#222">IWM (Std)</text><circle cx="851.2" cy="352.2" r="6" fill="#9aa6b2" fill-opacity="0.85"/><text x="862.2" y="356.2" font-size="12" font-weight="400" fill="#222">XLE (Con)</text><circle cx="475.6" cy="504.2" r="6" fill="#9aa6b2" fill-opacity="0.85"/><text x="486.6" y="508.2" font-size="12" font-weight="400" fill="#222">TLT (Con)</text><circle cx="550.5" cy="302.4" r="6" fill="#1f6feb" fill-opacity="0.85"/><text x="561.5" y="306.4" font-size="12" font-weight="400" fill="#222">GLD (Con)</text><circle cx="271.7" cy="515.1" r="6" fill="#9aa6b2" fill-opacity="0.85"/><text x="282.7" y="519.1" font-size="12" font-weight="400" fill="#222">TIP (Con)</text><rect x="70" y="40" width="900" height="542" fill="none" stroke="#ccc"/><text x="970" y="32" font-size="11" fill="#9aa6b2" text-anchor="end">up-and-left = better risk-adjusted · Std=fast re-entry, Con=classic 50/200</text></svg>